<?xml version="1.0" encoding="UTF-8" standalone="no"?>
<!-- Created with Inkscape (http://www.inkscape.org/) -->

<svg
   width="52.56118mm"
   height="22.932156mm"
   viewBox="0 0 52.56118 22.932156"
   version="1.1"
   id="svg1"
   xml:space="preserve"
   xmlns="http://www.w3.org/2000/svg"
   xmlns:svg="http://www.w3.org/2000/svg"><defs
     id="defs1" /><g
     id="layer1"
     transform="translate(-148.94544,-38.986544)"><g
       id="g88"
       transform="translate(69.75304,29.372921)"
       style="fill:#dc0155;fill-opacity:1"><path
         style="font-weight:900;font-size:25.4px;font-family:Gelion;-inkscape-font-specification:'Gelion, Heavy';fill:#dc0155;fill-opacity:1;stroke-width:0.264583"
         d="m 127.80963,9.6136236 h 3.94394 V 27.038923 h -3.94394 z"
         id="path83" /><path
         id="path84"
         style="font-weight:900;font-size:25.4px;font-family:Gelion;-inkscape-font-specification:'Gelion, Heavy';fill:#dc0155;fill-opacity:1;stroke-width:0.264583"
         d="m 120.04597,15.095719 c -1.18235,0 -2.23656,0.252184 -3.1626,0.756543 -0.92604,0.49609 -1.64952,1.207164 -2.17041,2.133203 -0.51263,0.91778 -0.76894,1.996783 -0.76894,3.237012 0,1.198899 0.25631,2.265496 0.76894,3.199805 0.057,0.102278 0.11734,0.200849 0.17932,0.298173 h 3.10059 v 2.348177 c 0.65348,0.202972 1.36272,0.305408 2.12751,0.305408 1.50481,0 2.79467,-0.376204 3.86954,-1.128614 1.07487,-0.760679 1.73219,-1.757006 1.97197,-2.988964 h -3.80752 c -0.14883,0.289389 -0.40515,0.520901 -0.76895,0.694531 -0.35554,0.16537 -0.77722,0.248047 -1.26504,0.248047 -0.66145,0 -1.19889,-0.173629 -1.6123,-0.520899 -0.41341,-0.347269 -0.63666,-0.802018 -0.66973,-1.364258 h 8.30079 c 0.0204,-0.454745 0.0732,-0.970674 0.0455,-1.632458 -0.0453,-1.081031 -0.16367,-1.964464 -0.77669,-2.94814 -0.48783,-0.85163 -1.22964,-1.470711 -2.16938,-1.942001 -0.88469,-0.479559 -2.02675,-0.695565 -3.19257,-0.695565 z m -0.14883,3.199805 c 0.5705,0 1.0418,0.132285 1.41387,0.396875 0.37207,0.26458 0.56637,0.624254 0.58291,1.079004 h -4.00596 c 0.0331,-0.45475 0.23565,-0.814424 0.60772,-1.079004 0.37207,-0.26459 0.83922,-0.396875 1.40146,-0.396875 z" /><path
         style="font-weight:900;font-size:25.4px;font-family:Gelion;-inkscape-font-specification:'Gelion, Heavy';fill:#dc0155;fill-opacity:1;stroke-width:0.264583"
         d="m 105.4482,27.038923 h -4.2664 l 3.63388,-5.56866 -3.84472,-5.96552 h 4.52685 l 1.90996,3.27422 1.72393,-3.27422 h 4.36562 l -3.75791,5.89111 3.60909,5.64307 h -4.50205 c -0.82683,-1.455213 -1.40147,-2.480473 -1.72393,-3.07578 z"
         id="path85" /><path
         id="path86"
         style="font-weight:900;font-size:25.4px;font-family:Gelion;-inkscape-font-specification:'Gelion, Heavy';fill:#dc0155;fill-opacity:1;stroke-width:0.264583"
         d="m 86.460164,15.095683 c -0.810285,0 -1.54616,0.136427 -2.207617,0.409277 -0.661457,0.27285 -1.186491,0.661461 -1.575098,1.16582 l -0.198437,-1.16582 h -3.286621 v 17.04082 h 3.943945 v -6.238379 c 0.793748,0.71106 1.901695,1.066602 3.323828,1.066602 1.099672,0 2.083596,-0.256316 2.951758,-0.768945 0.876431,-0.52089 1.554429,-1.248504 2.033984,-2.182813 0.487825,-0.934309 0.731738,-2.000906 0.731738,-3.199805 0,-1.198888 -0.243913,-2.265495 -0.731738,-3.199804 -0.479555,-0.934309 -1.15342,-1.653649 -2.021582,-2.158008 -0.859894,-0.51263 -1.847951,-0.768945 -2.96416,-0.768945 z m -0.958598,3.547587 c 0.760676,0 1.393197,0.235647 1.897559,0.706933 0.512629,0.46302 0.768945,1.099675 0.768945,1.909961 0,0.777212 -0.256316,1.405597 -0.768945,1.885156 -0.504362,0.471287 -1.136883,0.706934 -1.897559,0.706934 -0.793749,0 -1.455208,-0.235647 -1.984375,-0.706934 -0.520898,-0.479559 -0.781348,-1.107944 -0.781348,-1.885156 0,-0.810286 0.26045,-1.446941 0.781348,-1.909961 0.529167,-0.471286 1.190626,-0.706933 1.984375,-0.706933 z" /><rect
         style="fill:#dc0155;fill-opacity:1;stroke-width:0.232625"
         id="rect87"
         width="4.5956473"
         height="4.4069819"
         x="94.327751"
         y="22.626009" /><path
         style="font-weight:900;font-size:25.4px;font-family:Gelion;-inkscape-font-specification:'Gelion, Heavy';display:inline;fill:#dc0155;fill-opacity:1;stroke-width:0.264583"
         d="M 95.26588,20.713723 94.484532,9.6235946 h 4.266406 L 97.981993,20.713723 Z"
         id="path88" /></g></g></svg>
